# xmcd CD database file
# Copyright (C) 1993-1998 Ti Kan
# 
# Track frame offsets:
#     150
#     10680
#     25135
#     37832
#     50260
#     64639
#     77555
#     88402
#     101062
#     114342
#     126837
#     139950
#     153035
#     166122
#     178390
# 
# Disc length: 2543 seconds
# 
# Revision: 1
# Processed by: cddbd v1.4b41PL1 Copyright (c) Steve Scherf et al.
# Submitted via: DiscPlay 4.0.4
# 
DISCID=b609ed0f
DTITLE=Varios - Cantemos a Guayaquil
DYEAR=1900
DGENRE=
TTITLE0=Asi es Guayaquil
TTITLE1=Guayaquil de mis amores
TTITLE2=Guayaquile o
TTITLE3=Guayaquil portico de oro
TTITLE4=Romance de mi destino
TTITLE5=El montubio
TTITLE6=El gigante del Guayas
TTITLE7=Cholo porte o
TTITLE8=Romance criollo de la Ni a Guayaquile a
TTITLE9=Palyita mia
TTITLE10=Morena Mia
TTITLE11=Vamos a Guayaquil
TTITLE12=Perla ecuatoriana
TTITLE13=Yo soy Juan Pueblo
TTITLE14=Mi soberano Guayaquil
EXTD=
EXTT0=
EXTT1=
EXTT2=
EXTT3=
EXTT4=
EXTT5=
EXTT6=
EXTT7=
EXTT8=
EXTT9=
EXTT10=
EXTT11=
EXTT12=
EXTT13=
EXTT14=
PLAYORDER=
